<?xml version="1.0" encoding="UTF-8"?>
<svg id="Capa_2" data-name="Capa 2" xmlns="http://www.w3.org/2000/svg" viewBox="0 0 683.12 683.12">
  <defs>
    <style>
      .cls-1 {
        fill: #f33;
      }
    </style>
  </defs>
  <g id="Capa_1-2" data-name="Capa 1">
    <g>
      <path class="cls-1" d="M341.56,0C152.92,0,0,152.92,0,341.56s152.92,341.56,341.56,341.56,341.56-152.92,341.56-341.56S530.2,0,341.56,0ZM672.07,309.26c.13,1.35.25,2.71.37,4.06.19,2.21-1.49,4.14-3.7,4.3l-.99.07c-2.18.16-4.09-1.46-4.28-3.63-.11-1.31-.23-2.62-.35-3.92-.21-2.17,1.38-4.1,3.55-4.34l.99-.11c2.21-.24,4.2,1.36,4.41,3.57ZM668.86,285.23c.23,1.34.45,2.68.66,4.02.35,2.19-1.18,4.24-3.38,4.56l-.99.14c-2.16.31-4.18-1.15-4.52-3.31-.2-1.29-.42-2.59-.64-3.88-.37-2.15,1.08-4.2,3.23-4.59l.97-.18c2.18-.4,4.29,1.05,4.66,3.24ZM663.9,261.49c.33,1.32.65,2.64.96,3.97.51,2.16-.87,4.31-3.03,4.8l-.97.21c-2.13.47-4.27-.85-4.77-2.98-.3-1.28-.61-2.55-.92-3.82-.52-2.12.77-4.26,2.88-4.81l.97-.25c2.15-.56,4.35.73,4.89,2.89ZM652.11,235.62c2.1-.72,4.39.41,5.09,2.52.43,1.3.85,2.61,1.26,3.92.66,2.12-.55,4.37-2.67,5.01l-.94.28c-2.1.63-4.32-.53-4.98-2.62-.39-1.26-.8-2.51-1.21-3.76-.68-2.08.46-4.32,2.53-5.02l.93-.32ZM642.6,213.58l.92-.39c2.05-.87,4.42.1,5.27,2.16.51,1.25,1.02,2.5,1.52,3.76.82,2.07-.2,4.42-2.29,5.22l-.93.36c-2.04.78-4.34-.22-5.14-2.25-.48-1.22-.98-2.44-1.48-3.65-.83-2.02.12-4.34,2.13-5.19ZM632.44,191.91l.87-.45c1.98-1.02,4.42-.22,5.42,1.77.6,1.21,1.2,2.42,1.79,3.63.97,2.01.12,4.42-1.9,5.37l-.9.42c-1.98.93-4.34.11-5.3-1.86-.57-1.18-1.16-2.36-1.74-3.54-.98-1.96-.18-4.34,1.76-5.34ZM620.7,171.08l.85-.52c1.9-1.16,4.39-.55,5.53,1.37.69,1.16,1.37,2.32,2.04,3.48,1.12,1.93.44,4.4-1.5,5.5l-.87.49c-1.91,1.07-4.32.42-5.42-1.48-.66-1.13-1.32-2.26-1.99-3.39-1.12-1.88-.52-4.31,1.35-5.45ZM607.48,151.15l.81-.58c1.81-1.3,4.34-.87,5.62.96.77,1.1,1.53,2.21,2.29,3.32,1.26,1.84.76,4.36-1.09,5.59l-.83.55c-1.82,1.21-4.28.73-5.51-1.08-.74-1.08-1.48-2.16-2.23-3.23-1.25-1.79-.83-4.26.95-5.53ZM592.85,132.25l.77-.64c1.71-1.43,4.26-1.18,5.67.55.85,1.04,1.69,2.09,2.52,3.14,1.39,1.75,1.08,4.29-.68,5.66l-.79.61c-1.73,1.34-4.21,1.04-5.57-.67-.81-1.02-1.63-2.04-2.45-3.05-1.38-1.7-1.14-4.19.54-5.59ZM576.9,114.47l.72-.69c1.61-1.55,4.17-1.49,5.7.14.92.98,1.83,1.96,2.74,2.94,1.51,1.64,1.39,4.2-.27,5.69l-.74.67c-1.63,1.46-4.13,1.34-5.61-.27-.88-.96-1.77-1.91-2.66-2.86-1.5-1.59-1.44-4.1.14-5.61ZM559.7,97.9l.67-.74c1.49-1.66,4.05-1.78,5.69-.28.99.9,1.97,1.82,2.94,2.73,1.62,1.53,1.69,4.09.14,5.7l-.69.72c-1.52,1.58-4.02,1.64-5.61.14-.95-.89-1.9-1.78-2.86-2.66-1.61-1.48-1.73-3.98-.27-5.61ZM541.35,82.63l.61-.79c1.36-1.77,3.91-2.07,5.66-.69,1.05.83,2.09,1.67,3.13,2.51,1.73,1.41,1.98,3.96.56,5.67l-.64.77c-1.4,1.68-3.89,1.93-5.59.55-1.01-.82-2.03-1.63-3.04-2.44-1.71-1.36-2.02-3.84-.68-5.57ZM521.96,68.74l.55-.83c1.23-1.86,3.75-2.35,5.59-1.1,1.1.75,2.2,1.51,3.3,2.27,1.83,1.28,2.26,3.8.96,5.61l-.58.81c-1.27,1.78-3.74,2.2-5.53.95-1.06-.74-2.13-1.48-3.21-2.21-1.81-1.23-2.29-3.69-1.08-5.51ZM501.61,56.3l.49-.87c1.09-1.94,3.57-2.62,5.5-1.5,1.15.67,2.3,1.34,3.45,2.02,1.92,1.14,2.53,3.63,1.37,5.53l-.52.85c-1.14,1.87-3.57,2.47-5.45,1.35-1.11-.66-2.23-1.32-3.35-1.97-1.89-1.1-2.55-3.51-1.48-5.42ZM480.42,45.39l.43-.91c.95-2.02,3.36-2.87,5.37-1.9,1.2.58,2.39,1.17,3.58,1.76,2,1,2.79,3.43,1.77,5.41l-.46.89c-1,1.94-3.38,2.72-5.34,1.75-1.16-.58-2.32-1.15-3.48-1.71-1.97-.95-2.8-3.31-1.87-5.29ZM458.51,36.06l.36-.93c.8-2.08,3.14-3.11,5.22-2.29,1.23.49,2.47.99,3.69,1.49,2.06.85,3.04,3.22,2.16,5.27l-.39.92c-.85,2.01-3.16,2.97-5.18,2.14-1.2-.5-2.41-.98-3.62-1.47-2.03-.8-3.02-3.1-2.24-5.14ZM435.91,28.34l.29-.96c.64-2.12,2.89-3.34,5.01-2.67,1.3.41,2.59.82,3.88,1.25,2.11.69,3.23,2.99,2.52,5.09l-.32.94c-.71,2.07-2.94,3.2-5.02,2.52-1.25-.41-2.5-.81-3.75-1.2-2.08-.65-3.24-2.87-2.61-4.96ZM412.8,22.31l.22-.97c.48-2.17,2.64-3.54,4.8-3.03,1.32.31,2.65.63,3.97.96,2.15.53,3.44,2.74,2.88,4.89l-.25.97c-.55,2.11-2.69,3.4-4.81,2.88-1.27-.32-2.55-.62-3.83-.93-2.12-.5-3.44-2.63-2.97-4.76ZM389.32,17.99l.14-.99c.32-2.2,2.37-3.72,4.56-3.38,1.34.21,2.68.43,4.02.66,2.19.37,3.64,2.48,3.23,4.66l-.18.98c-.4,2.15-2.44,3.59-4.59,3.23-1.29-.22-2.59-.44-3.89-.64-2.15-.34-3.62-2.37-3.31-4.53ZM365.65,14.4c.16-2.21,2.09-3.89,4.3-3.7,1.35.11,2.71.24,4.06.37,2.21.21,3.81,2.21,3.57,4.41l-.11.99c-.24,2.17-2.17,3.76-4.34,3.55-1.31-.13-2.62-.25-3.92-.36-2.17-.18-3.79-2.1-3.63-4.27l.07-1ZM341.71,13.52c0-2.22,1.81-4.03,4.03-4,1.36.02,2.72.04,4.08.07,2.22.05,3.96,1.93,3.88,4.14l-.04,1c-.08,2.18-1.89,3.91-4.07,3.85-1.31-.03-2.63-.06-3.94-.07-2.18-.03-3.93-1.82-3.93-4v-1ZM321.5,10.1c1.35-.08,2.71-.15,4.07-.22,2.22-.11,4.08,1.64,4.16,3.86l.04.99c.08,2.18-1.61,4.04-3.79,4.14-1.31.06-2.62.13-3.93.21-2.18.13-4.05-1.53-4.2-3.71l-.07-1c-.16-2.21,1.51-4.15,3.73-4.28ZM297.36,12.42c1.35-.18,2.7-.35,4.05-.51,2.2-.27,4.19,1.34,4.43,3.54l.11.99c.23,2.17-1.31,4.14-3.48,4.4-1.3.16-2.61.32-3.91.5-2.16.29-4.15-1.24-4.46-3.39l-.14-.99c-.32-2.2,1.21-4.24,3.41-4.54ZM273.45,16.49c1.33-.28,2.66-.55,4-.81,2.18-.43,4.28,1.03,4.68,3.21l.18.98c.39,2.15-1,4.23-3.15,4.65-1.29.25-2.58.51-3.86.78-2.13.44-4.23-.93-4.7-3.06l-.22-.98c-.48-2.17.89-4.32,3.07-4.78ZM249.91,22.31c1.31-.37,2.62-.74,3.93-1.1,2.14-.58,4.34.71,4.9,2.86l.25.97c.55,2.11-.69,4.28-2.79,4.86-1.27.35-2.53.7-3.79,1.06-2.1.6-4.29-.62-4.92-2.71l-.29-.95c-.64-2.13.57-4.38,2.71-4.99ZM226.83,29.86c1.29-.47,2.58-.94,3.87-1.4,2.09-.74,4.38.39,5.1,2.49l.32.94c.7,2.07-.37,4.34-2.44,5.07-1.24.44-2.48.89-3.72,1.34-2.05.76-4.33-.3-5.11-2.34l-.35-.92c-.79-2.07.25-4.41,2.33-5.17ZM204.37,39.08c1.23-.56,2.46-1.11,3.69-1.65,2.04-.9,4.43.04,5.3,2.1l.39.92c.86,2.01-.06,4.34-2.07,5.22-1.2.53-2.4,1.06-3.59,1.61-1.99.9-4.34.04-5.27-1.94l-.42-.91c-.95-2.02-.06-4.42,1.97-5.35ZM182.63,49.93c1.18-.65,2.37-1.28,3.56-1.91,1.97-1.05,4.42-.28,5.44,1.7l.46.89c1,1.95.26,4.33-1.68,5.36-1.16.61-2.31,1.23-3.46,1.86-1.92,1.05-4.33.36-5.4-1.55l-.49-.87c-1.09-1.94-.38-4.41,1.57-5.48ZM161.76,62.34c1.13-.73,2.26-1.45,3.4-2.17,1.89-1.19,4.38-.6,5.55,1.3l.52.85c1.14,1.87.57,4.3-1.28,5.47-1.11.7-2.21,1.4-3.31,2.11-1.84,1.19-4.29.67-5.5-1.15l-.55-.83c-1.23-1.86-.71-4.37,1.17-5.58ZM141.86,76.24c1.07-.81,2.15-1.61,3.23-2.4,1.8-1.32,4.33-.92,5.63.89l.58.81c1.27,1.78.88,4.25-.88,5.55-1.05.77-2.1,1.55-3.14,2.34-1.75,1.32-4.23.98-5.57-.75l-.61-.79c-1.36-1.76-1.02-4.3.76-5.65ZM123.03,91.54c1.01-.88,2.03-1.76,3.04-2.63,1.7-1.45,4.25-1.23,5.68.48l.64.77c1.4,1.68,1.19,4.17-.47,5.6-.99.85-1.98,1.7-2.96,2.56-1.65,1.44-4.15,1.29-5.61-.34l-.67-.74c-1.49-1.66-1.33-4.22.35-5.69ZM105.37,108.15c.94-.95,1.89-1.9,2.84-2.84,1.59-1.57,4.15-1.54,5.7.07l.69.72c1.52,1.58,1.49,4.08-.07,5.61-.93.92-1.85,1.84-2.76,2.76-1.54,1.56-4.04,1.58-5.62.06l-.72-.69c-1.61-1.55-1.63-4.11-.07-5.7ZM88.97,126c.87-1.02,1.74-2.03,2.62-3.04,1.47-1.68,4.03-1.83,5.69-.35l.74.67c1.63,1.46,1.78,3.96.34,5.61-.86.98-1.71,1.96-2.55,2.95-1.42,1.66-3.91,1.87-5.6.47l-.77-.64c-1.71-1.43-1.93-3.98-.48-5.68ZM73.91,144.98c.79-1.07,1.59-2.15,2.39-3.21,1.34-1.78,3.88-2.12,5.65-.76l.79.61c1.73,1.34,2.06,3.82.75,5.57-.78,1.04-1.56,2.08-2.33,3.13-1.3,1.76-3.77,2.15-5.55.88l-.81-.58c-1.81-1.3-2.21-3.83-.89-5.63ZM60.28,165c.71-1.13,1.43-2.25,2.15-3.37,1.21-1.87,3.72-2.4,5.58-1.17l.83.55c1.82,1.21,2.34,3.66,1.15,5.5-.7,1.09-1.4,2.19-2.09,3.28-1.16,1.85-3.6,2.42-5.47,1.28l-.85-.52c-1.9-1.16-2.49-3.66-1.3-5.55ZM48.15,185.95c.62-1.18,1.26-2.35,1.9-3.52,1.07-1.96,3.53-2.66,5.48-1.57l.87.49c1.91,1.07,2.6,3.48,1.55,5.4-.62,1.14-1.24,2.28-1.84,3.42-1.03,1.93-3.42,2.68-5.36,1.67l-.89-.46c-1.98-1.02-2.75-3.47-1.7-5.44ZM37.58,207.71c.54-1.22,1.08-2.43,1.63-3.64.92-2.03,3.33-2.91,5.35-1.97l.9.42c1.97.93,2.85,3.27,1.95,5.26-.54,1.19-1.07,2.38-1.6,3.57-.88,2-3.21,2.9-5.22,2.04l-.92-.39c-2.05-.87-2.99-3.26-2.09-5.3ZM28.62,230.24c.46-1.28.92-2.56,1.39-3.83.77-2.08,3.1-3.12,5.18-2.32l.93.36c2.04.78,3.09,3.06,2.33,5.11-.46,1.23-.9,2.47-1.34,3.7-.73,2.05-2.99,3.13-5.05,2.42l-.95-.32c-2.1-.72-3.23-3.01-2.48-5.1ZM21.34,253.37c.36-1.31.73-2.62,1.1-3.93.61-2.13,2.87-3.34,4.99-2.7l.96.29c2.09.63,3.3,2.82,2.7,4.91-.36,1.26-.72,2.53-1.07,3.79-.58,2.1-2.76,3.34-4.87,2.79l-.96-.25c-2.15-.56-3.44-2.77-2.85-4.91ZM15.78,276.98c.26-1.33.53-2.67.81-4,.46-2.17,2.61-3.54,4.78-3.06l.97.22c2.13.47,3.5,2.57,3.05,4.71-.27,1.28-.53,2.57-.79,3.86-.42,2.14-2.5,3.53-4.64,3.14l-.98-.18c-2.18-.4-3.63-2.51-3.2-4.68ZM11.96,300.93c.16-1.35.34-2.7.52-4.05.3-2.2,2.35-3.72,4.54-3.4l.99.15c2.16.32,3.68,2.31,3.39,4.47-.17,1.3-.34,2.61-.5,3.91-.26,2.17-2.24,3.71-4.41,3.47l-.99-.11c-2.21-.24-3.81-2.23-3.54-4.44ZM10.13,321.01c.14-2.21,2.07-3.88,4.28-3.72l1,.07c2.18.16,3.84,2.03,3.7,4.21-.08,1.31-.15,2.62-.22,3.94-.11,2.18-1.96,3.86-4.14,3.78l-1-.04c-2.22-.08-3.96-1.95-3.85-4.17.07-1.36.14-2.72.22-4.07ZM8.74,348.81c-.04-1.31-.1-2.63-.15-3.94-.1-2.18,1.59-4.03,3.77-4.15l1-.06c2.22-.13,4.12,1.57,4.22,3.79.06,1.36.11,2.72.16,4.07.07,2.22-1.7,4.06-3.91,4.11l-.99.02c-2.18.05-4.02-1.66-4.09-3.85ZM11.02,373.53c-.13-1.35-.25-2.71-.36-4.06-.18-2.21,1.49-4.14,3.7-4.3l1-.07c2.18-.15,4.09,1.46,4.27,3.63.11,1.31.23,2.62.35,3.92.21,2.17-1.39,4.1-3.56,4.34l-.99.11c-2.21.24-4.2-1.36-4.41-3.57ZM14.2,397.57c-.23-1.34-.45-2.68-.66-4.02-.34-2.19,1.19-4.24,3.38-4.56l.99-.14c2.16-.31,4.18,1.16,4.52,3.31.2,1.3.42,2.59.64,3.89.37,2.15-1.09,4.19-3.23,4.58l-.98.18c-2.18.4-4.29-1.05-4.66-3.24ZM19.14,421.31c-.33-1.32-.64-2.64-.95-3.97-.5-2.16.87-4.31,3.04-4.79l.98-.22c2.13-.47,4.26.85,4.75,2.97.3,1.28.61,2.56.92,3.83.52,2.12-.78,4.26-2.89,4.81l-.96.25c-2.15.56-4.35-.74-4.88-2.89ZM30.89,447.16c-2.1.71-4.39-.41-5.08-2.52-.42-1.29-.84-2.59-1.24-3.89-.66-2.12.55-4.37,2.68-5l.96-.29c2.09-.63,4.31.53,4.96,2.62.39,1.25.79,2.5,1.2,3.75.68,2.08-.46,4.31-2.53,5.01l-.94.32ZM40.36,469.21l-.91.38c-2.04.87-4.41-.09-5.25-2.14-.52-1.27-1.03-2.54-1.54-3.81-.82-2.06.23-4.4,2.3-5.19l.92-.35c2.04-.78,4.34.22,5.15,2.25.48,1.22.98,2.45,1.48,3.66.83,2.03-.14,4.34-2.16,5.2ZM50.53,490.88l-.89.46c-1.98,1.02-4.42.22-5.41-1.78-.6-1.2-1.2-2.42-1.78-3.63-.97-2.01-.12-4.42,1.9-5.37l.91-.42c1.98-.93,4.34-.09,5.29,1.88.57,1.18,1.15,2.36,1.73,3.53.98,1.96.2,4.33-1.75,5.33ZM62.24,511.74l-.85.52c-1.9,1.16-4.39.54-5.53-1.37-.69-1.16-1.37-2.32-2.04-3.48-1.12-1.93-.44-4.4,1.51-5.49l.87-.49c1.91-1.07,4.32-.41,5.42,1.48.65,1.13,1.32,2.26,1.98,3.39,1.12,1.88.51,4.31-1.36,5.45ZM75.43,531.67l-.81.58c-1.81,1.3-4.34.86-5.61-.97-.77-1.1-1.53-2.21-2.29-3.32-1.25-1.84-.76-4.36,1.1-5.59l.83-.55c1.82-1.21,4.28-.73,5.51,1.08.73,1.08,1.48,2.16,2.22,3.23,1.25,1.79.82,4.26-.95,5.53ZM90.04,550.59l-.77.64c-1.71,1.43-4.26,1.18-5.67-.56-.84-1.04-1.68-2.09-2.52-3.14-1.38-1.75-1.08-4.29.69-5.66l.79-.61c1.73-1.34,4.22-1.04,5.57.68.81,1.02,1.63,2.04,2.45,3.05,1.38,1.7,1.13,4.19-.55,5.59ZM105.98,568.39l-.72.69c-1.61,1.55-4.17,1.48-5.7-.14-.92-.98-1.83-1.96-2.74-2.95-1.51-1.64-1.38-4.2.28-5.69l.75-.67c1.63-1.46,4.13-1.34,5.61.27.88.96,1.77,1.92,2.66,2.87,1.5,1.59,1.43,4.1-.14,5.61ZM123.15,584.98l-.67.74c-1.49,1.66-4.05,1.78-5.69.27-.98-.91-1.96-1.82-2.94-2.74-1.62-1.53-1.69-4.09-.14-5.7l.69-.72c1.52-1.57,4.02-1.63,5.61-.13.95.89,1.9,1.78,2.86,2.66,1.61,1.48,1.73,3.98.27,5.61ZM141.48,600.27l-.61.79c-1.37,1.76-3.91,2.07-5.66.68-1.05-.83-2.09-1.67-3.13-2.51-1.73-1.41-1.98-3.96-.55-5.67l.64-.77c1.4-1.68,3.89-1.92,5.59-.54,1.01.82,2.02,1.64,3.04,2.44,1.71,1.36,2.01,3.85.67,5.58ZM160.86,614.18l-.55.83c-1.23,1.86-3.75,2.35-5.59,1.09-1.1-.75-2.2-1.51-3.3-2.28-1.83-1.28-2.26-3.8-.96-5.62l.58-.81c1.28-1.78,3.74-2.2,5.53-.95,1.06.74,2.13,1.48,3.21,2.21,1.81,1.23,2.29,3.69,1.07,5.51ZM181.19,626.64l-.49.87c-1.1,1.94-3.57,2.61-5.5,1.5-1.15-.67-2.3-1.34-3.45-2.03-1.92-1.14-2.53-3.63-1.37-5.53l.52-.85c1.14-1.87,3.57-2.47,5.45-1.35,1.11.66,2.23,1.32,3.35,1.97,1.89,1.1,2.55,3.51,1.47,5.42ZM202.37,637.58l-.42.9c-.95,2.02-3.37,2.87-5.37,1.89-1.2-.58-2.39-1.17-3.58-1.77-1.99-1-2.79-3.44-1.77-5.42l.46-.89c1-1.94,3.38-2.73,5.32-1.75,1.17.59,2.34,1.16,3.51,1.73,1.96.95,2.78,3.32,1.85,5.29ZM224.27,646.93l-.36.93c-.8,2.08-3.15,3.11-5.22,2.28-1.23-.49-2.47-.99-3.69-1.5-2.06-.85-3.03-3.22-2.16-5.27l.39-.92c.86-2.01,3.17-2.96,5.2-2.13,1.19.49,2.39.98,3.59,1.46,2.03.81,3.03,3.1,2.25,5.15ZM246.86,654.68l-.29.96c-.64,2.12-2.89,3.33-5.01,2.67-1.3-.41-2.59-.83-3.88-1.25-2.11-.69-3.23-2.99-2.51-5.09l.32-.94c.71-2.06,2.94-3.2,5.02-2.51,1.25.41,2.5.81,3.75,1.21,2.08.66,3.23,2.88,2.6,4.96ZM269.96,660.73l-.22.98c-.48,2.17-2.64,3.54-4.8,3.03-1.32-.31-2.64-.63-3.96-.96-2.15-.54-3.44-2.74-2.88-4.89l.25-.96c.55-2.11,2.7-3.41,4.83-2.88,1.27.32,2.55.63,3.82.93,2.12.5,3.44,2.63,2.96,4.76ZM293.45,665.09l-.15.99c-.32,2.2-2.37,3.72-4.57,3.37-1.34-.21-2.68-.44-4.02-.67-2.19-.38-3.63-2.48-3.23-4.67l.18-.98c.4-2.14,2.44-3.59,4.59-3.22,1.29.22,2.59.44,3.89.65,2.16.34,3.62,2.37,3.3,4.53ZM317.11,668.7c-.16,2.21-2.1,3.88-4.31,3.69-1.35-.12-2.71-.24-4.06-.37-2.21-.22-3.8-2.21-3.56-4.42l.11-.99c.24-2.17,2.17-3.76,4.34-3.54,1.3.13,2.61.25,3.92.36,2.18.19,3.79,2.11,3.63,4.29l-.07.99ZM341.05,669.6c0,2.22-1.81,4.02-4.03,3.99-1.36-.02-2.72-.04-4.08-.08-2.22-.06-3.95-1.93-3.87-4.15l.04-1c.08-2.18,1.9-3.91,4.08-3.85,1.31.03,2.63.06,3.94.08,2.18.03,3.93,1.82,3.92,4.01v1ZM361.26,673.05c-1.35.08-2.71.15-4.07.21-2.22.1-4.08-1.64-4.16-3.86l-.03-.99c-.08-2.18,1.61-4.04,3.79-4.14,1.31-.06,2.62-.13,3.93-.21,2.18-.13,4.05,1.54,4.2,3.71l.07,1c.16,2.21-1.52,4.14-3.73,4.27ZM385.4,670.75c-1.35.18-2.7.35-4.05.51-2.2.26-4.19-1.34-4.43-3.55l-.11-.99c-.23-2.17,1.31-4.14,3.48-4.4,1.3-.16,2.61-.32,3.91-.49,2.16-.29,4.15,1.24,4.46,3.4l.14.99c.32,2.2-1.21,4.24-3.41,4.53ZM409.31,666.7c-1.33.28-2.66.54-4,.8-2.18.42-4.28-1.03-4.68-3.21l-.18-.98c-.39-2.15,1.01-4.22,3.15-4.64,1.29-.25,2.58-.51,3.86-.78,2.14-.44,4.23.93,4.7,3.07l.21.97c.48,2.17-.9,4.32-3.07,4.77ZM432.86,660.91c-1.31.37-2.62.74-3.93,1.1-2.14.58-4.34-.72-4.9-2.86l-.25-.97c-.55-2.11.69-4.28,2.8-4.86,1.27-.34,2.53-.7,3.79-1.06,2.1-.6,4.29.62,4.91,2.71l.28.95c.63,2.13-.58,4.38-2.71,4.98ZM455.95,653.39c-1.29.47-2.58.94-3.87,1.39-2.09.74-4.38-.39-5.1-2.5l-.32-.94c-.7-2.07.38-4.34,2.44-5.06,1.24-.44,2.48-.88,3.72-1.34,2.05-.75,4.33.3,5.11,2.35l.35.92c.79,2.07-.25,4.41-2.34,5.17ZM478.42,644.2c-1.23.56-2.46,1.11-3.7,1.65-2.04.9-4.42-.05-5.3-2.1l-.39-.92c-.85-2.01.07-4.34,2.07-5.22,1.2-.53,2.4-1.06,3.6-1.6,1.99-.9,4.34-.03,5.27,1.95l.42.91c.95,2.02.06,4.42-1.98,5.34ZM500.17,633.37c-1.18.64-2.37,1.28-3.56,1.91-1.97,1.04-4.42.28-5.43-1.71l-.45-.88c-1-1.94-.26-4.34,1.67-5.36,1.16-.61,2.32-1.24,3.48-1.87,1.92-1.05,4.33-.33,5.4,1.57l.48.86c1.09,1.95.38,4.41-1.58,5.47ZM521.05,620.98c-1.13.73-2.27,1.45-3.4,2.16-1.89,1.18-4.38.6-5.55-1.31l-.52-.85c-1.14-1.87-.57-4.3,1.29-5.47,1.11-.69,2.21-1.4,3.31-2.1,1.84-1.18,4.29-.67,5.49,1.16l.55.83c1.23,1.86.7,4.37-1.17,5.57ZM540.97,607.11c-1.07.81-2.15,1.61-3.23,2.4-1.8,1.32-4.33.92-5.63-.9l-.58-.81c-1.27-1.78-.88-4.25.88-5.55,1.05-.77,2.1-1.55,3.15-2.34,1.75-1.32,4.23-.98,5.56.76l.61.79c1.36,1.77,1.02,4.3-.77,5.65ZM559.81,591.83c-1.01.88-2.03,1.76-3.05,2.63-1.7,1.45-4.25,1.23-5.68-.49l-.64-.77c-1.4-1.68-1.19-4.18.48-5.59.99-.85,1.98-1.7,2.96-2.56,1.65-1.44,4.15-1.28,5.6.35l.67.75c1.49,1.66,1.33,4.22-.35,5.69ZM577.49,575.23c-.94.95-1.89,1.9-2.84,2.84-1.59,1.57-4.15,1.53-5.7-.07l-.69-.72c-1.52-1.58-1.49-4.08.07-5.62.93-.91,1.85-1.84,2.77-2.76,1.54-1.55,4.04-1.58,5.62-.06l.72.7c1.6,1.55,1.63,4.11.06,5.7ZM341.56,656.49c-173.93,0-314.93-141-314.93-314.93S167.63,26.63,341.56,26.63s314.93,141,314.93,314.93-141,314.93-314.93,314.93ZM593.91,557.4c-.87,1.02-1.75,2.03-2.63,3.03-1.47,1.68-4.03,1.83-5.69.34l-.74-.67c-1.63-1.46-1.78-3.96-.34-5.61.86-.98,1.71-1.96,2.56-2.95,1.42-1.66,3.92-1.87,5.6-.47l.77.64c1.71,1.43,1.92,3.98.47,5.68ZM608.99,538.43c-.79,1.07-1.59,2.15-2.4,3.21-1.35,1.78-3.88,2.12-5.65.75l-.79-.61c-1.73-1.34-2.06-3.82-.74-5.57.78-1.04,1.56-2.08,2.33-3.12,1.3-1.76,3.77-2.15,5.55-.87l.81.58c1.81,1.3,2.21,3.83.88,5.63ZM622.65,518.43c-.71,1.13-1.43,2.25-2.15,3.37-1.21,1.87-3.72,2.39-5.58,1.16l-.83-.55c-1.82-1.21-2.33-3.66-1.14-5.5.7-1.09,1.4-2.18,2.1-3.28,1.17-1.85,3.61-2.42,5.47-1.27l.85.52c1.9,1.17,2.48,3.66,1.29,5.55ZM634.8,497.5c-.63,1.17-1.26,2.35-1.9,3.51-1.07,1.96-3.54,2.66-5.48,1.56l-.87-.49c-1.9-1.07-2.6-3.48-1.55-5.39.63-1.15,1.25-2.3,1.86-3.45,1.03-1.92,3.42-2.65,5.36-1.65l.89.46c1.98,1.02,2.74,3.47,1.69,5.44ZM645.39,475.75c-.54,1.22-1.08,2.43-1.63,3.64-.93,2.03-3.33,2.91-5.35,1.96l-.9-.43c-1.97-.93-2.85-3.27-1.94-5.26.54-1.19,1.08-2.38,1.6-3.57.88-1.99,3.22-2.9,5.22-2.04l.92.39c2.05.88,2.99,3.26,2.09,5.3ZM654.38,453.23c-.46,1.28-.92,2.56-1.39,3.83-.77,2.08-3.11,3.12-5.18,2.32l-.93-.36c-2.04-.78-3.08-3.06-2.32-5.1.46-1.23.91-2.47,1.35-3.7.73-2.05,3-3.12,5.06-2.42l.94.32c2.1.72,3.22,3.02,2.48,5.11ZM661.69,430.1c-.36,1.31-.73,2.62-1.11,3.92-.62,2.13-2.87,3.34-4.99,2.69l-.96-.29c-2.09-.63-3.3-2.82-2.69-4.92.36-1.26.72-2.52,1.07-3.79.58-2.11,2.77-3.34,4.88-2.79l.96.25c2.15.56,3.43,2.77,2.84,4.91ZM667.27,406.5c-.26,1.33-.54,2.67-.82,4-.46,2.17-2.62,3.54-4.78,3.05l-.98-.22c-2.13-.48-3.5-2.57-3.04-4.71.27-1.28.53-2.57.79-3.85.43-2.15,2.51-3.54,4.66-3.14l.97.18c2.18.41,3.63,2.51,3.2,4.69ZM671.11,382.56c-.17,1.35-.34,2.7-.52,4.04-.3,2.2-2.35,3.72-4.55,3.4l-.99-.15c-2.16-.32-3.67-2.31-3.38-4.47.18-1.3.34-2.6.5-3.9.27-2.17,2.25-3.71,4.42-3.47l.98.11c2.21.24,3.8,2.24,3.53,4.44ZM672.97,362.48c-.14,2.21-2.07,3.88-4.29,3.72l-1-.07c-2.17-.16-3.83-2.04-3.7-4.21.08-1.31.15-2.62.22-3.93.11-2.18,1.97-3.86,4.15-3.78l.99.04c2.22.08,3.95,1.96,3.84,4.17-.07,1.36-.14,2.72-.23,4.07ZM669.86,340.96l-.99-.02c-2.18-.05-3.94-1.84-3.92-4.02.01-1.31.02-2.63.02-3.94,0-2.18,1.76-3.95,3.94-3.98h1c2.22-.04,4.05,1.74,4.06,3.95,0,1.36,0,2.72-.02,4.08-.02,2.22-1.87,3.98-4.09,3.93Z"/>
      <path class="cls-1" d="M206.54,546.26c4.49-12.93,9.54-25.68,14.06-38.59,9.66-27.56,22.24-60.4,29.41-88.24,2.01-7.81,1.63-10.01-6.99-9.59-6.38.32-16.87,1.65-23.23,2.77-6.44,1.13-7.86,3.44-10.27,9.23-3.99,9.59-7.35,22.2-10.56,32.34-6.56,20.76-12.14,41.83-18.65,62.6-.48,1.55-1.54,2.57-3.24,2.21-7.07-25.6-11.07-52.09-17.26-77.97-1.15-4.79-2.07-10.71-3.62-15.23-1.96-5.7-3.59-5.77-9.38-5.56-6.04.22-20.08,1.95-25.82,3.42-5.13,1.32-6.16,3.89-5.54,9.08l31.56,119.89c3.34,7.9,17.21,4.14,24.42,3.37,7.55-.8,20.23-1.67,27.09-3.46,3.71-.96,6.17-2.97,8.01-6.29Z"/>
      <path class="cls-1" d="M325.25,403.64c-2.6-3.29-7.41-2.31-11.2-2.07-7.81.51-21.9,1.62-29.15,3.34-3.4.81-4.97,2.86-6.57,5.78l-45.74,130.41c-.76,4.98-1.12,7.4,4.56,7.18,5.88-.24,15.38-1.69,21.37-2.7,7.3-1.22,8.18-1.45,11.14-8.37,1.47-3.43,4.64-17.08,7.3-18.04.92-.32,3.25-.51,4.49-.71,8.32-1.34,20.89-2.97,29.18-3.33,1.58-.07,4.34-.29,5.72.12,5.12,1.53,1.41,20.81,10.59,21.92,4,.48,21.95-1.71,26.44-2.7,5.14-1.12,5.56-5.13,4.87-9.76l-32.98-121.07ZM310.82,482.82c-.32,1.06-1.9,2.04-2.94,2.27l-20.55,2.01c-.87-.29-1.53.21-1.45-2.18.12-3.47,5.22-16.91,6.8-21.22.97-2.66,6.08-17.79,7.17-18.49.64-.4,1.26-.34,1.97-.29,2.46,7.46,10.55,32.74,8.99,37.89Z"/>
      <path class="cls-1" d="M139.59,405.21c2.8-.33,16.8-7.5,17.58-10.08,1.73-5.85-8.22-12.28-10.91-16.99,23.52-29.55,27.67-85.69-9.33-106.39-9.13-5.1-19.31-7.17-29.72-6.36-44.67,3.49-71.36,55.07-63.63,96,7.65,40.52,48.91,53.56,82.79,34.4,1.54,0,6.23,10.27,13.23,9.42ZM112.25,343.47c-2.85.18-17.7,10.35-17.48,12.92l9.59,12.06c-8.13,4.69-17.67.82-21.76-7.33-9.27-18.52-1.41-62.68,24.38-63.19,23.26-.48,22.54,38.96,16.02,53.73-3.27-2.28-5.96-8.5-10.75-8.19Z"/>
      <path class="cls-1" d="M263.37,221.19c3.75-.61,8.89-.71,10.94-4.25,2.43-4.24,4.75-17.92,7.64-20.31l34.55-4.21c4.83,1.49,1.67,19.95,9.14,20.55,8.14-1.03,17.37-1.25,25.33-2.91,10.22-2.14,8.64-6.86,6.68-15.3-7.44-31.97-18.21-68.31-27.91-99.82-2.84-9.28-2.4-11.7-13.08-11.02-7.92.51-25.94,2.13-32.99,4.3-2.98.91-4.81,2.98-5.9,5.83-10.43,38.33-26.28,76.7-36.24,114.97-1.09,4.2-3.75,10.28-.51,13.99,2.14,1.05,18.79-1.24,22.35-1.82ZM295.23,146.72c1.65-5.73,3.22-15.26,5.36-20.19.36-.82.86-1.35,1.55-1.9,1.91,1.36,2.07,3.55,2.64,5.64,2.85,10.46,4.56,21.64,6.4,32.33-.32,1.07-.4,2.08-1.58,2.62-1.62.74-17.61,2.59-19.1,2.1l-1.08-1.03c-.55-1.71,4.9-16.45,5.81-19.57Z"/>
      <path class="cls-1" d="M214.72,327.44c1.36-19.79,5.26-40.81,5.95-60.41.13-3.63,1.04-9.6-3.51-10.65-4.79-1.1-20.6.86-25.59,2.43-7.25,2.28-7.3,8.42-8.17,14.94-3.11,23.2-3.33,46.9-6.71,70.09.88,33.64,17.86,50.18,51.8,46.59,29.84-3.16,50.22-19.53,55.44-49.69,4.96-28.67,4.68-59.7,9.13-88.62.47-6.87-7.29-4.91-12.15-4.62-4.47.27-19.16,1.6-22.2,3.9-2.85,2.16-3.17,9.82-3.65,13.49-3,22.7-3.84,45.8-6.81,68.5-1.53,11.66-4.3,22.59-18.34,24.15-19.93,2.22-16.1-17.03-15.2-30.11Z"/>
      <path class="cls-1" d="M372.84,341.56c-.29-2.44-1.66-3.31-4.13-3.33-8.49-.07-19.57,3.27-28.36,3.74-1.06.06-6.23.35-6.34-.42,1-5.5-1.04-18.43,5.65-19.66,7.06-1.3,15.87-.93,22.9-2.46,1.48-.32,2.94-.78,3.9-2.06,2.01-2.68,4.2-24.29,2.86-27.42-.17-.4-.35-.76-.76-.98l-29.26,2.24c-1-.88.68-17.97,2.48-19.4,5.56-2.74,32.38-2.38,35.08-5.93,2.16-3.06.58-6.57.69-9.41.57-14.51,4.6-20-12.58-18.88-13.86.9-32.41,3.08-46.14,5.31-11.99,1.94-11.06,4.15-12.39,15.2-4.45,37.17-6.25,74.72-11.18,111.84-1.82,11.71,8.29,8.52,16.01,7.82,15.06-1.37,36.94-3.01,51.25-6.16,3.16-.7,5.89-1.29,7.45-4.48,1.77-3.63,3.36-21.31,2.87-25.55Z"/>
      <path class="cls-1" d="M150.21,235.79c8.48-.37,19.5-2.44,28.23-3.56,12.29-1.57,28.86-2.95,40.52-5.74,1.66-.4,4.21-.99,5.46-2.14,4.69-4.31,2.94-21.21,4.68-27.5-1.19-3.8-4.18-4.06-7.73-3.87-11.26.6-25.71,5.49-36.64,5.55-.61,0-1.2.02-1.74-.33-1.29-.92-.13-12.17.05-14.55,1.99-25.78,5.73-51.52,7.65-77.33-.14-7.58-5.35-6.15-11.24-5.67-4.56.37-15.98,1.61-19.9,2.89-2.95.96-4.67,2.86-5.06,5.98-3.47,39.1-9.82,78.38-11.49,117.62-.25,5.92.44,8.93,7.22,8.63Z"/>
      <path class="cls-1" d="M341.97,554.73c-37.19-5.66-86.55-.83-123.09,8.02-8.99,2.18-21.78,5.26-30.06,8.94-6.31,2.81-8.98,7.89-6.45,14.59,5.29,14.03,23.31,2.4,32.64-.75,44.17-14.87,91.35-20.51,137.96-18.04,3.57-.67,4.98-6.22,2.87-8.78-1.76-2.14-10.9-3.54-13.88-3.99Z"/>
      <path class="cls-1" d="M394.87,407.33c23.59,13.83,68.05-12.55,92.07-19.09,16.53,3.78,36.98,6.48,53.37,1.04,6.06-2.02,10.83-3.37,16.96-5.16,31.86-9.24,41.64-51.19,34.25-79.95-1.26-4.91-4.49-9.86-5.49-13.87-1.31-5.19-.57-13.43-1.52-19.46-4.15-26.24-14.88-39.85-28.23-61.09-8.16-12.98-9.85-20.03-14.32-34.29-3.48-11.08-10.37-15.89-14.79-25.72-5.08-11.29-3.67-20.12-5.87-31.42-1.76-9.1-9.61-14.65-18.77-12.44-22.82,5.51-27.04,40.61-22.01,59.53,3.73,13.96,15.51,24.33,15.65,39.39-1.02,1.86-14.1.05-16.8.03-12.79-.11-30.45.17-41.67,6.6-14.07,8.09-18.31,29.98-7.09,42.22-13.61,11.21-14.77,36.57.77,46.49-15.06,15.9-6.93,38.91,10.02,49.62-15.94,10.06-53.26,14.38-56.1,37.11-1.04,8.25,2.24,16.19,9.54,20.47ZM443.77,219.54c16.36-8.18,63.54-3.31,77.4,10.28,7.27,7.12,6.22,18.69,1.35,26.92l-9.15-5.32c.64-6.5-1.2-12.78-2.68-18.99l-1.77.18c.61,1.61,1.07,17.86-.22,17.93-6.44-2.03-13.16-3.33-19.88-4.06-11.54-1.26-24.44-1.32-35.95.38-6.49.96-12.57,5.25-17.29-1.9-5.26-7.99-.2-21.23,8.17-25.41ZM435.93,261.18c12.35-9.12,52.49-7.99,67.27-3.8,20.71,5.85,29.86,23.05,19.74,42.91l-7.34-5.6c.49-5.61.36-12.14-.78-17.68-.41-1.99-1.64-6.59-4.24-6.42,1.65,7.01,3.08,15.25.2,22.03-15.58-5.93-33.43-4.81-49.74-2.5-5.73.81-17,4.33-22.1,3.38-12.63-2.37-12.19-25.53-3-32.31ZM434,327.6c-10.42-30.45,31.84-31.21,50.99-31.04,18.4.15,42.02,7.03,34.08,30.78-4.86,14.55-19.77,12.29-31.84,10.1,3.23-3.31,9.98-4.57,9.03-10.48-.27-.25-4.21,2.75-5.03,3.19-12.38,6.67-29.56,7.66-43.06,4.28,2.27,4.11,6.14,6.43,10.83,6.6l-6.04,3.5c-1.12.53-1.84.2-2.89-.13-4.85-1.54-14.37-11.87-16.06-16.8ZM400.08,381.53c5.57-5.69,21.14-11.46,28.96-13.78,3.92-1.17,6.1-2.35,10.27-.68,1.19.47,7.59,5.61,8.07,5l-5.6-8.04,16.04-9.16,6.46,2.66,5.87,4.39c.59-2.45-7.49-9.87-7.07-10.57l14.04-7.79,22.41,3.36c1.5,5.02-.6,10.53-.73,15.27-.06,2.18,3.46-1,4.02-1.61,3.23-3.45,3.66-9.25,3.29-13.78,19.09-2.13,27.73-22.04,21.1-38.93l3.89-3.66c6.3,3.32,12.83,5.24,20.02,3.78,1.89-.39,7.42-1.71,5.6-4.1-8,1.83-16.06-1.67-21.82-7.05,2.33-11.82,2.03-23.13-5.27-33.19,6.22-10.19,7.68-24.68,2.01-35.41-5.12-9.69-16.1-15.55-26.22-18.58-.78-6.52-1.29-12.94-3.33-19.22,2.48,1.38,14.62-5.96,12.29-7.86-5.94,3.15-9.93,2.11-14.57-2.32-13.58-13-16.95-49.24,1.33-59.35,10.79-5.95,9.4,2.1,10.24,10.44,1.44,14.35,2.66,22.05,11.04,34.29,2.24,3.26,6.26,7,7.83,10.32,2.13,4.51,2.8,10.97,4.38,15.93,6.9,21.68,23.69,35.81,32.34,56.67,7.63,18.39,12.47,43.45-2,59.84-.98,1.12-5.95,4.82-5.68,5.65,1.18,3.6,11.56-4.14,13.07-5.59.86-.83,4.59-6.19,5.42-5.59,6.06,17.62,4.96,37.97-5.05,53.88-2.11,3.36-8.58,11.37-12.05,12.9-.28.13-.94.27-.89-.19,5.61-7.15,8.82-19.27,7.17-28.22-.19-1.04-.04-1.92-1.19-2.52-3.25,10.74-6.64,21.94-14.72,30.14-14.73,14.97-40.35,14.58-58.93,8.36l.98-4.01c-11.83,9.12-27.44,12.29-41.53,17.1-12.74,4.33-38.83,16.67-51.16,8.2-6.98-4.79-5.58-11.56-.33-16.95Z"/>
      <path class="cls-1" d="M440.96,188.34c1.38,2.32,2.75,5.18,6.05,3.63,2.42-1.14.62-5.39.06-7.19-2.31-7.41-8.31-20.88-11.78-28.11-.32-.67-1.01-2-1.57-2.37-3.53-2.37-6.63,1.97-5.63,5.93,1.46,5.77,9.62,22.63,12.87,28.11Z"/>
      <path class="cls-1" d="M418.65,204.58c2.14,1.34,3.17,2.05,5.38.07.37-.7.17-1.91.02-2.71-.81-4.45-17.83-18.58-22.33-21.08-1.8-1-4.45-2.54-6.51-1.7-3.71,1.52.27,6.38,1.91,8.05,3.98,4.07,16.71,14.36,21.53,17.37Z"/>
      <path class="cls-1" d="M408.74,223.45c2.83-.39,3.14-3.47,1.33-5.25-.9-.89-16.51-6.12-18.34-6.31-3.41-.35-6.48.57-4.8,4.59,1.14,2.72,18.68,7.4,21.81,6.97Z"/>
      <path class="cls-1" d="M507.96,328.08c.02,3.85,3.83-.68,4.34-2.98,1.35-6.09-.95-13.42-4.49-18.44l-1.47,1.02c1,5.04,1.88,10.8,2.11,15.92.08,1.69-.48,3.12-.48,4.48Z"/>
      <path class="cls-1" d="M501.42,423.04c-11.23-3-30.2-8.65-41.21-6.34-17.83,3.75-22.36,20.79-19.04,36.74-17.97,24.87-35.83,50.09-50.43,77.15-6.09,11.27-14.02,26.34-18.3,38.23-4.44,12.31-3.03,20.73,10.98,23.73l37.4-11.88c-2.86,12.67-7.46,40.79,11.75,41.94,9.15.55,15.51-4.85,16.9-13.8,1.23-7.8-1.79-34.3,1.59-38.59,2.37-3.01,29.6-8.61,34.38-12.97-.24,4.15-1.26,8.03-.83,12.28,1.42,14.13,20.59,18.44,26.03,4.06,3.4-8.94.48-16.76,1.38-25.85,16.85-6.41,33.24-14.32,48.63-23.69,18.59-11.31,37.98-24.46,29.25-49.71-9.34-26.98-63.04-44.5-88.48-51.3ZM463.36,426.12c6.03-1.02,18.3,2.39,24.69,3.87,24.88,5.79,54.26,15.53,75.78,29.41,4.41,2.84,9.65,6.28,12.27,10.81-7.98.12-15.58,5.34-19.32,12.29-.21.38-.58,1.31-1,2.39-.09.22-.17.44-.27.67-.13.35-.27.7-.41,1.04-.09.23-.17.46-.27.69-.28.7-.54,1.34-.78,1.87-.07.17-.15.34-.22.48-.03.08-.07.15-.1.21-.07.13-.13.25-.18.34-.01.02-.03.04-.05.07-.02.03-.05.07-.07.1-.06.09-.11.13-.16.13-5.3-5.73-12.6-8.9-18.86-13.32-9.44-6.67-17.71-15.65-29.46-18.21-6.35-1.38-12.87-1-19.16-3.22-6.74-2.38-12.48-8.91-19.45-10.15-4.53-.81-9.8-.66-14.31.03-5.1-7.48,3.5-18.13,11.31-19.46ZM421.73,569.01l-17.53,6.63c1-2.5,17.2-12.25,18.27-10.98l-.74,4.34ZM485.63,546.53l-16.11,5.04c2.02-2.59,12.92-9.29,15.54-7.38.86.62.69,1.4.57,2.33ZM504.33,547.24c-.42,6.61,4.03,27.36-7.21,25.34-6.62-1.19-2.94-11.66-2.93-16.15.04-9.08-3.38-20.67-14.53-19.18-7.35.98-28.16,15.68-33.03,21.53-10.25,12.34-3.28,29.41-4.95,43.27-.69,5.81-4.31,13.27-11.47,9.86-7.61-3.6-.63-26.86,0-33.41.61-6.41,1.9-21.88-8.3-20.25-5.71.92-15.25,7.04-20.16,10.4-3.67,2.5-12.03,10.28-15.18,11.47-1.81.69-5.89,1.06-6.84-.96-1.5-3.19,6.08-19.2,7.86-23.21,16.22-36.68,39.79-69.27,63.02-101.66,2.65-.31,5.95-1.19,8.53-1.2,10.87-.05,14.37,6.49,23.41,9.68,8.84,3.13,18.75,2.22,27,6.16,6.67,3.2,11.74,9.59,17.57,13.92,4.08,3.03,23.3,13.63,23.54,18.04-.36,1.05-1.46,2.51-2.22,3.27-6.72,6.66-24.34,12.3-33.07,17.74-8.35,5.21-10.44,16.04-11.04,25.34ZM559.19,510.25c-14.09,8.92-29.22,16.92-44.52,23.54.46-3.37,2.96-5.1,5.53-6.84,10.19-6.89,34.9-14.22,38.77-25.81,2.38-7.15,1.11-15.42,8.56-20.41,3.66-2.46,11.47-3.74,12.29,1.97,2.01,13.9-10.69,21.26-20.63,27.55Z"/>
      <path class="cls-1" d="M435.49,507.61c-6.09.83-15.96,7.46-17.69,13.63-4.33,15.43,10.87,22.88,24.03,20.25,26.68-5.31,19.03-37.32-6.33-33.88Z"/>
      <path class="cls-1" d="M515.84,496.63c-5.79-6.17-16.65-7.43-24.19-4.2-12.84,5.47-17.32,21.6-1.43,26.51,4.84,1.5,12.46,1.16,17.18-.55,8.36-3.03,15.83-13.89,8.44-21.76Z"/>
      <path class="cls-1" d="M456.99,469.97c-12.41,1.54-21.78,19.26-7.88,25.56,9.84,4.46,30.2-.17,29.81-13.5-.36-11.72-12.78-13.2-21.93-12.06Z"/>
    </g>
  </g>
</svg>