<svg width="186" height="14" viewBox="0 0 186 14" fill="none" xmlns="http://www.w3.org/2000/svg">
<path d="M3.41602 11H1.48242L1.49414 10.3848H3.41602C4.0293 10.3848 4.55664 10.248 4.99805 9.97461C5.44336 9.69727 5.78711 9.31445 6.0293 8.82617C6.27148 8.33789 6.39258 7.77148 6.39258 7.12695V6.33008C6.39258 5.83789 6.32227 5.39258 6.18164 4.99414C6.04492 4.5957 5.84766 4.25586 5.58984 3.97461C5.33203 3.68945 5.02344 3.4707 4.66406 3.31836C4.30859 3.16602 3.91016 3.08984 3.46875 3.08984H1.44727V2.46875H3.46875C4 2.46875 4.48633 2.56055 4.92773 2.74414C5.37305 2.92383 5.75781 3.18555 6.08203 3.5293C6.41016 3.86914 6.66211 4.27734 6.83789 4.75391C7.01758 5.23047 7.10742 5.76172 7.10742 6.34766V7.12695C7.10742 7.71289 7.01758 8.24414 6.83789 8.7207C6.66211 9.19727 6.41016 9.60547 6.08203 9.94531C5.75391 10.2852 5.36523 10.5469 4.91602 10.7305C4.4668 10.9102 3.9668 11 3.41602 11ZM1.80469 2.46875V11H1.08398V2.46875H1.80469ZM11.2324 11.1172C10.8184 11.1172 10.4375 11.041 10.0898 10.8887C9.74609 10.7363 9.44531 10.5215 9.1875 10.2441C8.93359 9.9668 8.73633 9.63867 8.5957 9.25977C8.45898 8.87695 8.39062 8.45898 8.39062 8.00586V7.75391C8.39062 7.26562 8.46289 6.82422 8.60742 6.42969C8.75195 6.03516 8.95117 5.69727 9.20508 5.41602C9.45898 5.13477 9.74805 4.91992 10.0723 4.77148C10.4004 4.61914 10.7441 4.54297 11.1035 4.54297C11.5059 4.54297 11.8633 4.61523 12.1758 4.75977C12.4883 4.90039 12.75 5.10156 12.9609 5.36328C13.1758 5.62109 13.3379 5.92773 13.4473 6.2832C13.5566 6.63477 13.6113 7.02344 13.6113 7.44922V7.87695H8.8125V7.2793H12.9141V7.19727C12.9062 6.8418 12.834 6.50977 12.6973 6.20117C12.5645 5.88867 12.3652 5.63477 12.0996 5.43945C11.834 5.24414 11.502 5.14648 11.1035 5.14648C10.8066 5.14648 10.5332 5.20898 10.2832 5.33398C10.0371 5.45898 9.82422 5.63867 9.64453 5.87305C9.46875 6.10352 9.33203 6.37891 9.23438 6.69922C9.14062 7.01562 9.09375 7.36719 9.09375 7.75391V8.00586C9.09375 8.35742 9.14453 8.68555 9.24609 8.99023C9.35156 9.29102 9.5 9.55664 9.69141 9.78711C9.88672 10.0176 10.1172 10.1973 10.3828 10.3262C10.6484 10.4551 10.9414 10.5195 11.2617 10.5195C11.6367 10.5195 11.9688 10.4512 12.2578 10.3145C12.5469 10.1738 12.8066 9.95312 13.0371 9.65234L13.4766 9.99219C13.3398 10.1953 13.168 10.3828 12.9609 10.5547C12.7578 10.7266 12.5137 10.8633 12.2285 10.9648C11.9434 11.0664 11.6113 11.1172 11.2324 11.1172ZM18.791 9.38281C18.791 9.21094 18.748 9.04102 18.6621 8.87305C18.5762 8.70508 18.4102 8.55078 18.1641 8.41016C17.9219 8.26953 17.5645 8.15039 17.0918 8.05273C16.7402 7.97461 16.4258 7.88672 16.1484 7.78906C15.875 7.69141 15.6445 7.57422 15.457 7.4375C15.2695 7.30078 15.127 7.13672 15.0293 6.94531C14.9316 6.75391 14.8828 6.52734 14.8828 6.26562C14.8828 6.03125 14.9336 5.81055 15.0352 5.60352C15.1406 5.39258 15.2891 5.20898 15.4805 5.05273C15.6758 4.89258 15.9102 4.76758 16.1836 4.67773C16.4609 4.58789 16.7715 4.54297 17.1152 4.54297C17.6035 4.54297 18.0215 4.62695 18.3691 4.79492C18.7207 4.95898 18.9883 5.18359 19.1719 5.46875C19.3594 5.75391 19.4531 6.07617 19.4531 6.43555H18.7559C18.7559 6.2168 18.6914 6.00977 18.5625 5.81445C18.4375 5.61914 18.252 5.45898 18.0059 5.33398C17.7637 5.20898 17.4668 5.14648 17.1152 5.14648C16.752 5.14648 16.457 5.20117 16.2305 5.31055C16.0039 5.41992 15.8379 5.55859 15.7324 5.72656C15.6309 5.89453 15.5801 6.06836 15.5801 6.24805C15.5801 6.38867 15.6016 6.51758 15.6445 6.63477C15.6914 6.74805 15.7734 6.85352 15.8906 6.95117C16.0117 7.04883 16.1836 7.14062 16.4062 7.22656C16.6289 7.3125 16.918 7.39648 17.2734 7.47852C17.7852 7.5918 18.2031 7.73047 18.5273 7.89453C18.8555 8.05469 19.0977 8.25391 19.2539 8.49219C19.4102 8.72656 19.4883 9.01172 19.4883 9.34766C19.4883 9.60938 19.4336 9.84961 19.3242 10.0684C19.2148 10.2832 19.0566 10.4688 18.8496 10.625C18.6465 10.7812 18.4004 10.9023 18.1113 10.9883C17.8262 11.0742 17.5059 11.1172 17.1504 11.1172C16.6152 11.1172 16.1621 11.0293 15.791 10.8535C15.4238 10.6738 15.1445 10.4395 14.9531 10.1504C14.7656 9.85742 14.6719 9.54688 14.6719 9.21875H15.3691C15.3926 9.54688 15.4961 9.80664 15.6797 9.99805C15.8633 10.1855 16.0879 10.3184 16.3535 10.3965C16.623 10.4746 16.8887 10.5137 17.1504 10.5137C17.5098 10.5137 17.8105 10.4609 18.0527 10.3555C18.2949 10.25 18.4785 10.1113 18.6035 9.93945C18.7285 9.76758 18.791 9.58203 18.791 9.38281ZM21.8555 4.66016V11H21.1582V4.66016H21.8555ZM21.0352 2.82617C21.0352 2.69336 21.0762 2.58203 21.1582 2.49219C21.2441 2.39844 21.3613 2.35156 21.5098 2.35156C21.6582 2.35156 21.7754 2.39844 21.8613 2.49219C21.9512 2.58203 21.9961 2.69336 21.9961 2.82617C21.9961 2.95508 21.9512 3.06641 21.8613 3.16016C21.7754 3.25 21.6582 3.29492 21.5098 3.29492C21.3613 3.29492 21.2441 3.25 21.1582 3.16016C21.0762 3.06641 21.0352 2.95508 21.0352 2.82617ZM27.9434 4.66016H28.5938V10.8887C28.5938 11.4395 28.4883 11.9121 28.2773 12.3066C28.0703 12.7012 27.7754 13.0039 27.3926 13.2148C27.0137 13.4258 26.5664 13.5312 26.0508 13.5312C25.7891 13.5312 25.5195 13.4902 25.2422 13.4082C24.9688 13.3301 24.709 13.209 24.4629 13.0449C24.2207 12.8848 24.0137 12.6855 23.8418 12.4473L24.2344 12.0195C24.4922 12.332 24.7676 12.5605 25.0605 12.7051C25.3535 12.8535 25.6699 12.9277 26.0098 12.9277C26.4121 12.9277 26.752 12.8477 27.0293 12.6875C27.3105 12.5273 27.5234 12.2969 27.668 11.9961C27.8164 11.6953 27.8906 11.334 27.8906 10.9121V6.05469L27.9434 4.66016ZM23.4902 7.89453V7.77148C23.4902 7.2793 23.5449 6.83594 23.6543 6.44141C23.7676 6.04297 23.9297 5.70312 24.1406 5.42188C24.3516 5.13672 24.6074 4.91992 24.9082 4.77148C25.2129 4.61914 25.5566 4.54297 25.9395 4.54297C26.3066 4.54297 26.6328 4.60352 26.918 4.72461C27.2031 4.8457 27.4492 5.01953 27.6562 5.24609C27.8633 5.47266 28.0293 5.74219 28.1543 6.05469C28.2832 6.36719 28.377 6.71484 28.4355 7.09766V8.66211C28.3887 9.02148 28.3027 9.35156 28.1777 9.65234C28.0527 9.94922 27.8867 10.209 27.6797 10.4316C27.4727 10.6504 27.2227 10.8203 26.9297 10.9414C26.6406 11.0586 26.3066 11.1172 25.9277 11.1172C25.5488 11.1172 25.209 11.0391 24.9082 10.8828C24.6074 10.7266 24.3516 10.5059 24.1406 10.2207C23.9297 9.93164 23.7676 9.58984 23.6543 9.19531C23.5449 8.80078 23.4902 8.36719 23.4902 7.89453ZM24.1934 7.77148V7.89453C24.1934 8.26562 24.2305 8.60938 24.3047 8.92578C24.3789 9.24219 24.4922 9.51758 24.6445 9.75195C24.7969 9.98633 24.9902 10.1699 25.2246 10.3027C25.459 10.4355 25.7344 10.502 26.0508 10.502C26.4531 10.502 26.791 10.4258 27.0645 10.2734C27.3379 10.1172 27.5547 9.91211 27.7148 9.6582C27.875 9.40039 27.9922 9.11914 28.0664 8.81445V6.99219C28.0234 6.78516 27.957 6.57422 27.8672 6.35938C27.7812 6.14453 27.6602 5.94727 27.5039 5.76758C27.3516 5.58398 27.1562 5.4375 26.918 5.32812C26.6836 5.21484 26.3984 5.1582 26.0625 5.1582C25.7422 5.1582 25.4629 5.22461 25.2246 5.35742C24.9902 5.49023 24.7969 5.67578 24.6445 5.91406C24.4922 6.14844 24.3789 6.42383 24.3047 6.74023C24.2305 7.05664 24.1934 7.40039 24.1934 7.77148ZM31.125 6.01367V11H30.4277V4.66016H31.0957L31.125 6.01367ZM30.9668 7.4375L30.6562 7.26172C30.6797 6.88672 30.7559 6.53516 30.8848 6.20703C31.0137 5.87891 31.1875 5.58984 31.4062 5.33984C31.6289 5.08984 31.8887 4.89453 32.1855 4.75391C32.4863 4.61328 32.8184 4.54297 33.1816 4.54297C33.498 4.54297 33.7812 4.58594 34.0312 4.67188C34.2812 4.75781 34.4941 4.89453 34.6699 5.08203C34.8457 5.26953 34.9785 5.50977 35.0684 5.80273C35.1621 6.0957 35.209 6.45312 35.209 6.875V11H34.5059V6.86914C34.5059 6.43164 34.4453 6.08984 34.3242 5.84375C34.2031 5.59375 34.0312 5.41602 33.8086 5.31055C33.5859 5.20508 33.3223 5.15234 33.0176 5.15234C32.6816 5.15234 32.3867 5.22656 32.1328 5.375C31.8828 5.51953 31.6719 5.70898 31.5 5.94336C31.332 6.17383 31.2031 6.42188 31.1133 6.6875C31.0234 6.94922 30.9746 7.19922 30.9668 7.4375ZM41.3203 6.40039L42.6914 5.36914C42.9414 5.18555 43.1465 4.98828 43.3066 4.77734C43.4707 4.5625 43.5527 4.31055 43.5527 4.02148C43.5527 3.74414 43.4531 3.49609 43.2539 3.27734C43.0547 3.05859 42.7676 2.94922 42.3926 2.94922C42.1191 2.94922 41.8887 3.00977 41.7012 3.13086C41.5137 3.24805 41.373 3.4082 41.2793 3.61133C41.1855 3.81055 41.1387 4.0293 41.1387 4.26758C41.1387 4.45508 41.1758 4.65039 41.25 4.85352C41.3281 5.05273 41.4375 5.26172 41.5781 5.48047C41.7227 5.69531 41.8965 5.92188 42.0996 6.16016L46.248 11H45.4043L41.8711 6.89258C41.582 6.55664 41.3281 6.24609 41.1094 5.96094C40.8945 5.67578 40.7285 5.39844 40.6113 5.12891C40.4941 4.85938 40.4355 4.58008 40.4355 4.29102C40.4355 3.88867 40.5156 3.54297 40.6758 3.25391C40.8359 2.96484 41.0625 2.74219 41.3555 2.58594C41.6484 2.42578 41.9941 2.3457 42.3926 2.3457C42.7754 2.3457 43.1016 2.42383 43.3711 2.58008C43.6445 2.73242 43.8535 2.93555 43.998 3.18945C44.1426 3.43945 44.2148 3.7168 44.2148 4.02148C44.2148 4.27539 44.1582 4.51172 44.0449 4.73047C43.9355 4.94922 43.793 5.14844 43.6172 5.32812C43.4453 5.50391 43.2637 5.66602 43.0723 5.81445L41.5137 7.01562C41.1777 7.28516 40.9277 7.5332 40.7637 7.75977C40.6035 7.98633 40.498 8.1875 40.4473 8.36328C40.3965 8.53906 40.3711 8.69141 40.3711 8.82031C40.3711 9.12109 40.4414 9.40039 40.582 9.6582C40.7227 9.91602 40.9375 10.123 41.2266 10.2793C41.5156 10.4355 41.8789 10.5137 42.3164 10.5137C42.6836 10.5137 43.0391 10.4355 43.3828 10.2793C43.7266 10.1191 44.0332 9.89258 44.3027 9.59961C44.5762 9.30273 44.791 8.95117 44.9473 8.54492C45.1074 8.13477 45.1875 7.67969 45.1875 7.17969H45.832C45.832 7.55078 45.7949 7.89844 45.7207 8.22266C45.6504 8.54688 45.5449 8.8457 45.4043 9.11914C45.2637 9.39258 45.0898 9.64453 44.8828 9.875C44.8516 9.91406 44.8301 9.94531 44.8184 9.96875C44.8105 9.99219 44.791 10.0195 44.7598 10.0508C44.4473 10.3789 44.0801 10.6387 43.6582 10.8301C43.2363 11.0215 42.7891 11.1172 42.3164 11.1172C41.7734 11.1172 41.3027 11.0215 40.9043 10.8301C40.5098 10.6387 40.2051 10.3711 39.9902 10.0273C39.7793 9.67969 39.6738 9.27734 39.6738 8.82031C39.6738 8.48047 39.7461 8.17188 39.8906 7.89453C40.0352 7.61719 40.2324 7.35742 40.4824 7.11523C40.7324 6.87305 41.0117 6.63477 41.3203 6.40039ZM54.3867 9.76953V2H55.0898V11H54.4336L54.3867 9.76953ZM49.9863 7.89453V7.77148C49.9863 7.2793 50.043 6.83594 50.1562 6.44141C50.2695 6.04297 50.4316 5.70312 50.6426 5.42188C50.8574 5.13672 51.1152 4.91992 51.416 4.77148C51.7168 4.61914 52.0566 4.54297 52.4355 4.54297C52.8066 4.54297 53.1348 4.60352 53.4199 4.72461C53.7051 4.8457 53.9492 5.01953 54.1523 5.24609C54.3594 5.47266 54.5254 5.74219 54.6504 6.05469C54.7793 6.36719 54.873 6.71484 54.9316 7.09766V8.66211C54.8848 9.02148 54.7988 9.35156 54.6738 9.65234C54.5488 9.94922 54.3828 10.209 54.1758 10.4316C53.9688 10.6504 53.7188 10.8203 53.4258 10.9414C53.1367 11.0586 52.8027 11.1172 52.4238 11.1172C52.0488 11.1172 51.7109 11.0391 51.4102 10.8828C51.1094 10.7266 50.8535 10.5059 50.6426 10.2207C50.4316 9.93164 50.2695 9.58984 50.1562 9.19531C50.043 8.80078 49.9863 8.36719 49.9863 7.89453ZM50.6895 7.77148V7.89453C50.6895 8.26562 50.7266 8.60938 50.8008 8.92578C50.875 9.24219 50.9883 9.51758 51.1406 9.75195C51.293 9.98633 51.4863 10.1699 51.7207 10.3027C51.9551 10.4355 52.2324 10.502 52.5527 10.502C52.9551 10.502 53.293 10.4258 53.5664 10.2734C53.8398 10.1172 54.0586 9.91211 54.2227 9.6582C54.3867 9.40039 54.5059 9.11914 54.5801 8.81445V6.99219C54.5332 6.78516 54.4648 6.57422 54.375 6.35938C54.2852 6.14453 54.1621 5.94727 54.0059 5.76758C53.8535 5.58398 53.6582 5.4375 53.4199 5.32812C53.1855 5.21484 52.9004 5.1582 52.5645 5.1582C52.2402 5.1582 51.9609 5.22461 51.7266 5.35742C51.4922 5.49023 51.2969 5.67578 51.1406 5.91406C50.9883 6.14844 50.875 6.42383 50.8008 6.74023C50.7266 7.05664 50.6895 7.40039 50.6895 7.77148ZM59.3848 11.1172C58.9707 11.1172 58.5898 11.041 58.2422 10.8887C57.8984 10.7363 57.5977 10.5215 57.3398 10.2441C57.0859 9.9668 56.8887 9.63867 56.748 9.25977C56.6113 8.87695 56.543 8.45898 56.543 8.00586V7.75391C56.543 7.26562 56.6152 6.82422 56.7598 6.42969C56.9043 6.03516 57.1035 5.69727 57.3574 5.41602C57.6113 5.13477 57.9004 4.91992 58.2246 4.77148C58.5527 4.61914 58.8965 4.54297 59.2559 4.54297C59.6582 4.54297 60.0156 4.61523 60.3281 4.75977C60.6406 4.90039 60.9023 5.10156 61.1133 5.36328C61.3281 5.62109 61.4902 5.92773 61.5996 6.2832C61.709 6.63477 61.7637 7.02344 61.7637 7.44922V7.87695H56.9648V7.2793H61.0664V7.19727C61.0586 6.8418 60.9863 6.50977 60.8496 6.20117C60.7168 5.88867 60.5176 5.63477 60.252 5.43945C59.9863 5.24414 59.6543 5.14648 59.2559 5.14648C58.959 5.14648 58.6855 5.20898 58.4355 5.33398C58.1895 5.45898 57.9766 5.63867 57.7969 5.87305C57.6211 6.10352 57.4844 6.37891 57.3867 6.69922C57.293 7.01562 57.2461 7.36719 57.2461 7.75391V8.00586C57.2461 8.35742 57.2969 8.68555 57.3984 8.99023C57.5039 9.29102 57.6523 9.55664 57.8438 9.78711C58.0391 10.0176 58.2695 10.1973 58.5352 10.3262C58.8008 10.4551 59.0938 10.5195 59.4141 10.5195C59.7891 10.5195 60.1211 10.4512 60.4102 10.3145C60.6992 10.1738 60.959 9.95312 61.1895 9.65234L61.6289 9.99219C61.4922 10.1953 61.3203 10.3828 61.1133 10.5547C60.9102 10.7266 60.666 10.8633 60.3809 10.9648C60.0957 11.0664 59.7637 11.1172 59.3848 11.1172ZM64.9336 10.3262L66.9668 4.66016H67.6875L65.3145 11H64.8047L64.9336 10.3262ZM63.0938 4.66016L65.1504 10.3438L65.2617 11H64.7461L62.3672 4.66016H63.0938ZM71.209 11.1172C70.7949 11.1172 70.4141 11.041 70.0664 10.8887C69.7227 10.7363 69.4219 10.5215 69.1641 10.2441C68.9102 9.9668 68.7129 9.63867 68.5723 9.25977C68.4355 8.87695 68.3672 8.45898 68.3672 8.00586V7.75391C68.3672 7.26562 68.4395 6.82422 68.584 6.42969C68.7285 6.03516 68.9277 5.69727 69.1816 5.41602C69.4355 5.13477 69.7246 4.91992 70.0488 4.77148C70.377 4.61914 70.7207 4.54297 71.0801 4.54297C71.4824 4.54297 71.8398 4.61523 72.1523 4.75977C72.4648 4.90039 72.7266 5.10156 72.9375 5.36328C73.1523 5.62109 73.3145 5.92773 73.4238 6.2832C73.5332 6.63477 73.5879 7.02344 73.5879 7.44922V7.87695H68.7891V7.2793H72.8906V7.19727C72.8828 6.8418 72.8105 6.50977 72.6738 6.20117C72.541 5.88867 72.3418 5.63477 72.0762 5.43945C71.8105 5.24414 71.4785 5.14648 71.0801 5.14648C70.7832 5.14648 70.5098 5.20898 70.2598 5.33398C70.0137 5.45898 69.8008 5.63867 69.6211 5.87305C69.4453 6.10352 69.3086 6.37891 69.2109 6.69922C69.1172 7.01562 69.0703 7.36719 69.0703 7.75391V8.00586C69.0703 8.35742 69.1211 8.68555 69.2227 8.99023C69.3281 9.29102 69.4766 9.55664 69.668 9.78711C69.8633 10.0176 70.0938 10.1973 70.3594 10.3262C70.625 10.4551 70.918 10.5195 71.2383 10.5195C71.6133 10.5195 71.9453 10.4512 72.2344 10.3145C72.5234 10.1738 72.7832 9.95312 73.0137 9.65234L73.4531 9.99219C73.3164 10.1953 73.1445 10.3828 72.9375 10.5547C72.7344 10.7266 72.4902 10.8633 72.2051 10.9648C71.9199 11.0664 71.5879 11.1172 71.209 11.1172ZM75.75 2V11H75.0527V2H75.75ZM77.2793 7.92969V7.73633C77.2793 7.27539 77.3457 6.84961 77.4785 6.45898C77.6113 6.06836 77.8008 5.73047 78.0469 5.44531C78.2969 5.16016 78.5957 4.93945 78.9434 4.7832C79.291 4.62305 79.6777 4.54297 80.1035 4.54297C80.5332 4.54297 80.9219 4.62305 81.2695 4.7832C81.6172 4.93945 81.916 5.16016 82.166 5.44531C82.416 5.73047 82.6074 6.06836 82.7402 6.45898C82.873 6.84961 82.9395 7.27539 82.9395 7.73633V7.92969C82.9395 8.39062 82.873 8.81641 82.7402 9.20703C82.6074 9.59375 82.416 9.92969 82.166 10.2148C81.9199 10.5 81.623 10.7227 81.2754 10.8828C80.9277 11.0391 80.541 11.1172 80.1152 11.1172C79.6855 11.1172 79.2969 11.0391 78.9492 10.8828C78.6016 10.7227 78.3027 10.5 78.0527 10.2148C77.8027 9.92969 77.6113 9.59375 77.4785 9.20703C77.3457 8.81641 77.2793 8.39062 77.2793 7.92969ZM77.9766 7.73633V7.92969C77.9766 8.27734 78.0234 8.60742 78.1172 8.91992C78.2109 9.22852 78.3477 9.50391 78.5273 9.74609C78.707 9.98438 78.9297 10.1719 79.1953 10.3086C79.4609 10.4453 79.7676 10.5137 80.1152 10.5137C80.459 10.5137 80.7617 10.4453 81.0234 10.3086C81.2891 10.1719 81.5117 9.98438 81.6914 9.74609C81.8711 9.50391 82.0059 9.22852 82.0957 8.91992C82.1895 8.60742 82.2363 8.27734 82.2363 7.92969V7.73633C82.2363 7.39258 82.1895 7.06641 82.0957 6.75781C82.0059 6.44922 81.8691 6.17383 81.6855 5.93164C81.5059 5.68945 81.2832 5.49805 81.0176 5.35742C80.752 5.2168 80.4473 5.14648 80.1035 5.14648C79.7598 5.14648 79.4551 5.2168 79.1895 5.35742C78.9277 5.49805 78.7051 5.68945 78.5215 5.93164C78.3418 6.17383 78.2051 6.44922 78.1113 6.75781C78.0215 7.06641 77.9766 7.39258 77.9766 7.73633ZM85.084 5.87891V13.4375H84.3809V4.66016H85.0371L85.084 5.87891ZM89.4902 7.77148V7.89453C89.4902 8.36719 89.4355 8.80078 89.3262 9.19531C89.2168 9.58984 89.0586 9.93164 88.8516 10.2207C88.6484 10.5059 88.3965 10.7266 88.0957 10.8828C87.7949 11.0391 87.4531 11.1172 87.0703 11.1172C86.6914 11.1172 86.3535 11.0586 86.0566 10.9414C85.7598 10.8242 85.5039 10.6582 85.2891 10.4434C85.0781 10.2246 84.9082 9.9707 84.7793 9.68164C84.6543 9.38867 84.5664 9.06836 84.5156 8.7207V7.09766C84.5742 6.71484 84.6699 6.36719 84.8027 6.05469C84.9355 5.74219 85.1055 5.47266 85.3125 5.24609C85.5234 5.01953 85.7734 4.8457 86.0625 4.72461C86.3516 4.60352 86.6816 4.54297 87.0527 4.54297C87.4395 4.54297 87.7832 4.61914 88.084 4.77148C88.3887 4.91992 88.6445 5.13672 88.8516 5.42188C89.0625 5.70312 89.2207 6.04297 89.3262 6.44141C89.4355 6.83594 89.4902 7.2793 89.4902 7.77148ZM88.7871 7.89453V7.77148C88.7871 7.40039 88.748 7.05664 88.6699 6.74023C88.5957 6.42383 88.4805 6.14844 88.3242 5.91406C88.1719 5.67578 87.9766 5.49023 87.7383 5.35742C87.5039 5.22461 87.2246 5.1582 86.9004 5.1582C86.5645 5.1582 86.2773 5.21484 86.0391 5.32812C85.8047 5.4375 85.6094 5.58398 85.4531 5.76758C85.2969 5.94727 85.1738 6.14453 85.084 6.35938C84.9941 6.57422 84.9277 6.78516 84.8848 6.99219V8.86133C84.959 9.1582 85.0781 9.43359 85.2422 9.6875C85.4062 9.9375 85.625 10.1387 85.8984 10.291C86.1758 10.4395 86.5137 10.5137 86.9121 10.5137C87.2324 10.5137 87.5098 10.4473 87.7441 10.3145C87.9785 10.1816 88.1719 9.99609 88.3242 9.75781C88.4805 9.51953 88.5957 9.24219 88.6699 8.92578C88.748 8.60938 88.7871 8.26562 88.7871 7.89453ZM93.498 11.1172C93.084 11.1172 92.7031 11.041 92.3555 10.8887C92.0117 10.7363 91.7109 10.5215 91.4531 10.2441C91.1992 9.9668 91.002 9.63867 90.8613 9.25977C90.7246 8.87695 90.6562 8.45898 90.6562 8.00586V7.75391C90.6562 7.26562 90.7285 6.82422 90.873 6.42969C91.0176 6.03516 91.2168 5.69727 91.4707 5.41602C91.7246 5.13477 92.0137 4.91992 92.3379 4.77148C92.666 4.61914 93.0098 4.54297 93.3691 4.54297C93.7715 4.54297 94.1289 4.61523 94.4414 4.75977C94.7539 4.90039 95.0156 5.10156 95.2266 5.36328C95.4414 5.62109 95.6035 5.92773 95.7129 6.2832C95.8223 6.63477 95.877 7.02344 95.877 7.44922V7.87695H91.0781V7.2793H95.1797V7.19727C95.1719 6.8418 95.0996 6.50977 94.9629 6.20117C94.8301 5.88867 94.6309 5.63477 94.3652 5.43945C94.0996 5.24414 93.7676 5.14648 93.3691 5.14648C93.0723 5.14648 92.7988 5.20898 92.5488 5.33398C92.3027 5.45898 92.0898 5.63867 91.9102 5.87305C91.7344 6.10352 91.5977 6.37891 91.5 6.69922C91.4062 7.01562 91.3594 7.36719 91.3594 7.75391V8.00586C91.3594 8.35742 91.4102 8.68555 91.5117 8.99023C91.6172 9.29102 91.7656 9.55664 91.957 9.78711C92.1523 10.0176 92.3828 10.1973 92.6484 10.3262C92.9141 10.4551 93.207 10.5195 93.5273 10.5195C93.9023 10.5195 94.2344 10.4512 94.5234 10.3145C94.8125 10.1738 95.0723 9.95312 95.3027 9.65234L95.7422 9.99219C95.6055 10.1953 95.4336 10.3828 95.2266 10.5547C95.0234 10.7266 94.7793 10.8633 94.4941 10.9648C94.209 11.0664 93.877 11.1172 93.498 11.1172ZM101.379 9.76953V2H102.082V11H101.426L101.379 9.76953ZM96.9785 7.89453V7.77148C96.9785 7.2793 97.0352 6.83594 97.1484 6.44141C97.2617 6.04297 97.4238 5.70312 97.6348 5.42188C97.8496 5.13672 98.1074 4.91992 98.4082 4.77148C98.709 4.61914 99.0488 4.54297 99.4277 4.54297C99.7988 4.54297 100.127 4.60352 100.412 4.72461C100.697 4.8457 100.941 5.01953 101.145 5.24609C101.352 5.47266 101.518 5.74219 101.643 6.05469C101.771 6.36719 101.865 6.71484 101.924 7.09766V8.66211C101.877 9.02148 101.791 9.35156 101.666 9.65234C101.541 9.94922 101.375 10.209 101.168 10.4316C100.961 10.6504 100.711 10.8203 100.418 10.9414C100.129 11.0586 99.7949 11.1172 99.416 11.1172C99.041 11.1172 98.7031 11.0391 98.4023 10.8828C98.1016 10.7266 97.8457 10.5059 97.6348 10.2207C97.4238 9.93164 97.2617 9.58984 97.1484 9.19531C97.0352 8.80078 96.9785 8.36719 96.9785 7.89453ZM97.6816 7.77148V7.89453C97.6816 8.26562 97.7188 8.60938 97.793 8.92578C97.8672 9.24219 97.9805 9.51758 98.1328 9.75195C98.2852 9.98633 98.4785 10.1699 98.7129 10.3027C98.9473 10.4355 99.2246 10.502 99.5449 10.502C99.9473 10.502 100.285 10.4258 100.559 10.2734C100.832 10.1172 101.051 9.91211 101.215 9.6582C101.379 9.40039 101.498 9.11914 101.572 8.81445V6.99219C101.525 6.78516 101.457 6.57422 101.367 6.35938C101.277 6.14453 101.154 5.94727 100.998 5.76758C100.846 5.58398 100.65 5.4375 100.412 5.32812C100.178 5.21484 99.8926 5.1582 99.5566 5.1582C99.2324 5.1582 98.9531 5.22461 98.7188 5.35742C98.4844 5.49023 98.2891 5.67578 98.1328 5.91406C97.9805 6.14844 97.8672 6.42383 97.793 6.74023C97.7188 7.05664 97.6816 7.40039 97.6816 7.77148ZM106.846 2H107.549V9.76953L107.502 11H106.846V2ZM111.961 7.77148V7.89453C111.961 8.36719 111.906 8.80078 111.797 9.19531C111.688 9.58984 111.529 9.93164 111.322 10.2207C111.115 10.5059 110.861 10.7266 110.561 10.8828C110.264 11.0391 109.922 11.1172 109.535 11.1172C109.156 11.1172 108.82 11.0586 108.527 10.9414C108.234 10.8203 107.984 10.6504 107.777 10.4316C107.57 10.209 107.404 9.94922 107.279 9.65234C107.154 9.35156 107.066 9.02148 107.016 8.66211V7.09766C107.074 6.71484 107.168 6.36719 107.297 6.05469C107.426 5.74219 107.592 5.47266 107.795 5.24609C108.002 5.01953 108.248 4.8457 108.533 4.72461C108.822 4.60352 109.152 4.54297 109.523 4.54297C109.91 4.54297 110.254 4.61914 110.555 4.77148C110.859 4.91992 111.115 5.13672 111.322 5.42188C111.529 5.70312 111.688 6.04297 111.797 6.44141C111.906 6.83594 111.961 7.2793 111.961 7.77148ZM111.252 7.89453V7.77148C111.252 7.40039 111.217 7.05664 111.146 6.74023C111.076 6.42383 110.965 6.14844 110.812 5.91406C110.664 5.67578 110.473 5.49023 110.238 5.35742C110.004 5.22461 109.723 5.1582 109.395 5.1582C109.059 5.1582 108.771 5.21484 108.533 5.32812C108.299 5.4375 108.104 5.58398 107.947 5.76758C107.795 5.94727 107.674 6.14453 107.584 6.35938C107.494 6.57422 107.428 6.78516 107.385 6.99219V8.81445C107.451 9.10742 107.566 9.38281 107.73 9.64062C107.895 9.89844 108.115 10.1074 108.393 10.2676C108.67 10.4238 109.008 10.502 109.406 10.502C109.727 10.502 110.002 10.4355 110.232 10.3027C110.467 10.1699 110.658 9.98633 110.807 9.75195C110.959 9.51758 111.07 9.24219 111.141 8.92578C111.215 8.60938 111.252 8.26562 111.252 7.89453ZM115.324 10.3672L117.299 4.66016H118.055L115.371 12.0195C115.316 12.1641 115.246 12.3242 115.16 12.5C115.078 12.6758 114.969 12.8438 114.832 13.0039C114.699 13.168 114.531 13.3008 114.328 13.4023C114.129 13.5078 113.885 13.5605 113.596 13.5605C113.521 13.5605 113.426 13.5508 113.309 13.5312C113.195 13.5156 113.113 13.5 113.062 13.4844L113.057 12.8926C113.1 12.9043 113.162 12.9141 113.244 12.9219C113.326 12.9297 113.383 12.9336 113.414 12.9336C113.668 12.9336 113.881 12.8906 114.053 12.8047C114.229 12.7188 114.375 12.5898 114.492 12.418C114.609 12.25 114.713 12.0391 114.803 11.7852L115.324 10.3672ZM113.479 4.66016L115.5 10.1035L115.688 10.8359L115.178 11.123L112.717 4.66016H113.479Z" fill="#140B15"/>
<g clip-path="url(#clip0_1232_64)">
<path d="M132.64 2.46288V0.195157C132.64 0.0878204 132.551 0 132.442 0H122.199C122.089 0 122 0.0878204 122 0.195157V2.46288C122 2.57021 122.089 2.65803 122.199 2.65803H125.574C125.683 2.65803 125.773 2.74585 125.773 2.85319V10.7365C125.773 10.8439 125.862 10.9317 125.971 10.9317H128.653C128.762 10.9317 128.852 10.8439 128.852 10.7365V2.85319C128.852 2.74585 128.941 2.65803 129.051 2.65803H132.443C132.552 2.65803 132.641 2.57021 132.641 2.46288H132.64Z" fill="#004DFF"/>
<path d="M137.118 0H134.437C134.327 0 134.238 0.0873746 134.238 0.195157V7.02564C134.238 7.13342 134.327 7.22079 134.437 7.22079H137.118C137.228 7.22079 137.317 7.13342 137.317 7.02564V0.195157C137.317 0.0873746 137.228 0 137.118 0Z" fill="#004DFF"/>
<path d="M137.118 8.24048H134.437C134.327 8.24048 134.238 8.32785 134.238 8.43564V10.7365C134.238 10.8443 134.327 10.9317 134.437 10.9317H137.118C137.228 10.9317 137.317 10.8443 137.317 10.7365V8.43564C137.317 8.32785 137.228 8.24048 137.118 8.24048Z" fill="#004DFF"/>
<path d="M142.246 10.7365V6.89488C142.246 6.13084 142.111 4.66912 142.111 4.66912L142.145 4.65253L147.313 10.8605C147.35 10.9053 147.407 10.9317 147.467 10.9317H150.134C150.244 10.9317 150.333 10.8439 150.333 10.7365V0.195157C150.333 0.0878204 150.244 0 150.134 0H147.453C147.343 0 147.254 0.0878204 147.254 0.195157V4.08658C147.254 4.71791 147.372 6.17963 147.372 6.17963H147.339L142.238 0.0712321C142.201 0.0263461 142.144 0 142.084 0H139.366C139.257 0 139.167 0.0878204 139.167 0.195157V10.7365C139.167 10.8439 139.257 10.9317 139.366 10.9317H142.048C142.157 10.9317 142.246 10.8439 142.246 10.7365Z" fill="#004DFF"/>
<path d="M163.175 0H160.113C160.047 0 159.984 0.0331766 159.947 0.0878204L158.399 2.39262C158.247 2.64144 157.571 3.90411 157.571 3.90411H157.52C157.52 3.90411 156.894 2.64144 156.742 2.39262L155.177 0.0868447C155.14 0.0322008 155.078 0 155.012 0H151.965C151.808 0 151.712 0.170762 151.798 0.300541L155.984 6.67923C156.005 6.71046 156.016 6.74754 156.016 6.78462V10.7356C156.016 10.8429 156.105 10.9307 156.214 10.9307H158.896C159.005 10.9307 159.095 10.8429 159.095 10.7356V6.78559C159.095 6.74754 159.106 6.71143 159.126 6.67923L163.342 0.301517C163.428 0.171738 163.333 0 163.175 0Z" fill="#004DFF"/>
<path d="M160.814 10.0925C160.535 10.0925 160.358 10.273 160.358 10.5111C160.358 10.7492 160.535 10.9298 160.814 10.9298C161.092 10.9298 161.27 10.7551 161.27 10.5111C161.27 10.2672 161.086 10.0925 160.814 10.0925Z" fill="#004DFF"/>
<path d="M164.523 8.89329C164.315 8.77717 163.983 8.70691 163.622 8.66008C163.291 8.61324 163.036 8.58494 162.876 8.51468C162.71 8.43369 162.663 8.3166 162.663 8.19463C162.663 7.96142 162.846 7.71747 163.433 7.71747C163.847 7.71747 164.316 7.83359 164.6 7.95068L164.79 7.30471C164.428 7.14176 163.96 7.03149 163.41 7.03149C162.468 7.03149 161.834 7.52036 161.834 8.1956C161.834 8.52151 161.964 8.84743 162.314 9.03966C162.545 9.16748 162.847 9.23774 163.232 9.27775C163.576 9.31873 163.866 9.36459 164.002 9.43485C164.138 9.5051 164.21 9.62122 164.21 9.76661C164.21 10.075 163.949 10.3189 163.344 10.3189C162.864 10.3189 162.367 10.1618 162.059 10.0223L161.881 10.6917C162.278 10.8839 162.787 11 163.409 11C164.475 11 165.02 10.4584 165.02 9.76076C165.02 9.3763 164.86 9.07966 164.523 8.89426V8.89329Z" fill="#004DFF"/>
<path d="M165.282 7.82291H166.716V10.9298H167.545V7.82291H168.979V7.10181H165.282V7.82291Z" fill="#004DFF"/>
<path d="M172.274 9.38221C172.274 9.93548 171.948 10.278 171.296 10.278C170.644 10.278 170.312 9.9345 170.312 9.38221V7.10083H169.483V9.41051C169.483 10.4927 170.3 10.9991 171.296 10.9991C172.292 10.9991 173.103 10.4927 173.103 9.41051V7.10083H172.274V9.38221Z" fill="#004DFF"/>
<path d="M175.248 7.10083H174.015V10.9298H175.485C176.835 10.9298 177.594 10.2897 177.594 9.00946C177.594 7.93317 176.96 7.10083 175.248 7.10083ZM175.497 10.2087H174.845V7.82291H175.379C176.41 7.82291 176.76 8.35276 176.76 9.01044C176.76 9.84863 176.356 10.2097 175.498 10.2097L175.497 10.2087Z" fill="#004DFF"/>
<path d="M179.095 7.10181H178.265V10.9308H179.095V7.10181Z" fill="#004DFF"/>
<path d="M181.88 7.03149C180.67 7.03149 179.758 7.88043 179.758 8.99282C179.758 10.2028 180.666 11 181.88 11C183.094 11 184 10.1442 184 8.99282C184 7.84139 183.082 7.03149 181.88 7.03149ZM181.88 10.2613C181.174 10.2613 180.635 9.8076 180.635 8.99867C180.635 8.26488 181.174 7.77016 181.88 7.77016C182.585 7.77016 183.124 8.26586 183.124 8.99867C183.124 9.8076 182.584 10.2613 181.88 10.2613Z" fill="#004DFF"/>
</g>
<defs>
<clipPath id="clip0_1232_64">
<rect width="62" height="11" fill="white" transform="translate(122)"/>
</clipPath>
</defs>
</svg>
