<svg width="129" height="25" viewBox="0 0 129 25" fill="none" xmlns="http://www.w3.org/2000/svg">
<g clip-path="url(#clip0_355_816)">
<path d="M22.029 5.90712V0.928457C22.029 0.692805 21.8446 0.5 21.6192 0.5H0.493812C0.268398 0.5 0.0839691 0.692805 0.0839691 0.928457V5.90712C0.0839691 6.14277 0.268398 6.33558 0.493812 6.33558H7.45499C7.6804 6.33558 7.86483 6.52839 7.86483 6.76404V24.0715C7.86483 24.3072 8.04926 24.5 8.27467 24.5H13.8055C14.0309 24.5 14.2153 24.3072 14.2153 24.0715V6.76404C14.2153 6.52839 14.3998 6.33558 14.6252 6.33558H21.6212C21.8466 6.33558 22.031 6.14277 22.031 5.90712H22.029Z" fill="#004DFF"/>
<path d="M31.2648 0.5H25.734C25.5076 0.5 25.3241 0.691827 25.3241 0.928457V15.9244C25.3241 16.1611 25.5076 16.3529 25.734 16.3529H31.2648C31.4911 16.3529 31.6746 16.1611 31.6746 15.9244V0.928457C31.6746 0.691827 31.4911 0.5 31.2648 0.5Z" fill="#004DFF"/>
<path d="M31.2648 18.5916H25.734C25.5076 18.5916 25.3241 18.7834 25.3241 19.02V24.0715C25.3241 24.3081 25.5076 24.5 25.734 24.5H31.2648C31.4911 24.5 31.6746 24.3081 31.6746 24.0715V19.02C31.6746 18.7834 31.4911 18.5916 31.2648 18.5916Z" fill="#004DFF"/>
<path d="M42.0457 24.0715V15.6374C42.0457 13.96 41.767 10.7508 41.767 10.7508L41.8367 10.7144L52.4946 24.3436C52.5725 24.4422 52.6893 24.5 52.8123 24.5H58.3144C58.5398 24.5 58.7243 24.3072 58.7243 24.0715V0.928457C58.7243 0.692805 58.5398 0.5 58.3144 0.5H52.7836C52.5582 0.5 52.3737 0.692805 52.3737 0.928457V9.47188C52.3737 10.8579 52.6176 14.0671 52.6176 14.0671H52.5479L42.0293 0.656387C41.9514 0.557842 41.8346 0.5 41.7117 0.5H36.105C35.8796 0.5 35.6952 0.692805 35.6952 0.928457V24.0715C35.6952 24.3072 35.8796 24.5 36.105 24.5H41.6359C41.8613 24.5 42.0457 24.3072 42.0457 24.0715Z" fill="#004DFF"/>
<path d="M85.0054 0.5H78.6897C78.5524 0.5 78.4233 0.572838 78.3475 0.692805L75.1548 5.75288C74.8413 6.29916 73.4458 9.07127 73.4458 9.07127H73.3413C73.3413 9.07127 72.0503 6.29916 71.7368 5.75288L68.5092 0.690663C68.4334 0.570695 68.3043 0.5 68.1691 0.5H61.8841C61.5604 0.5 61.3636 0.8749 61.5399 1.15982L70.1732 15.1639C70.2162 15.2325 70.2388 15.3139 70.2388 15.3953V24.0694C70.2388 24.305 70.4232 24.4979 70.6486 24.4979H76.1794C76.4049 24.4979 76.5893 24.305 76.5893 24.0694V15.3974C76.5893 15.3139 76.6118 15.2346 76.6549 15.1639L85.3497 1.16197C85.5259 0.877042 85.3312 0.5 85.0054 0.5Z" fill="#004DFF"/>
<path d="M87.9132 19.4078C87.485 19.1529 86.8005 18.9986 86.0567 18.8958C85.3722 18.793 84.8476 18.7308 84.5177 18.5766C84.1755 18.3988 84.0771 18.1417 84.0771 17.8739C84.0771 17.3619 84.4562 16.8263 85.6653 16.8263C86.5198 16.8263 87.487 17.0813 88.0731 17.3383L88.4645 15.9202C87.7186 15.5624 86.7534 15.3203 85.6181 15.3203C83.6755 15.3203 82.3681 16.3936 82.3681 17.8761C82.3681 18.5916 82.6365 19.3071 83.3578 19.7291C83.8353 20.0098 84.4583 20.164 85.2513 20.2518C85.9603 20.3418 86.5587 20.4425 86.8395 20.5968C87.1202 20.751 87.2677 21.0059 87.2677 21.3251C87.2677 22.0021 86.7308 22.5377 85.4829 22.5377C84.4931 22.5377 83.4664 22.1928 82.8312 21.8864L82.4644 23.356C83.2841 23.778 84.3333 24.033 85.6161 24.033C87.8149 24.033 88.9399 22.844 88.9399 21.3123C88.9399 20.4682 88.61 19.817 87.9132 19.4099V19.4078Z" fill="#004DFF"/>
<path d="M89.4768 17.0577H92.4338V23.8787H94.1449V17.0577H97.1019V15.4745H89.4768V17.0577Z" fill="#004DFF"/>
<path d="M103.897 20.4811C103.897 21.6957 103.225 22.4477 101.881 22.4477C100.536 22.4477 99.852 21.6936 99.852 20.4811V15.4724H98.1409V20.5432C98.1409 22.919 99.8274 24.0308 101.881 24.0308C103.934 24.0308 105.608 22.919 105.608 20.5432V15.4724H103.897V20.4811Z" fill="#004DFF"/>
<path d="M110.034 15.4724H107.491V23.8787H110.522C113.307 23.8787 114.873 22.4734 114.873 19.6627C114.873 17.2998 113.565 15.4724 110.034 15.4724ZM110.547 22.2956H109.203V17.0577H110.303C112.43 17.0577 113.151 18.221 113.151 19.6649C113.151 21.5051 112.319 22.2977 110.549 22.2977L110.547 22.2956Z" fill="#004DFF"/>
<path d="M117.965 15.4745H116.254V23.8809H117.965V15.4745Z" fill="#004DFF"/>
<path d="M123.709 15.3203C121.215 15.3203 119.334 17.1841 119.334 19.6263C119.334 22.2827 121.205 24.033 123.709 24.033C126.213 24.033 128.082 22.1542 128.082 19.6263C128.082 17.0984 126.188 15.3203 123.709 15.3203ZM123.709 22.4113C122.254 22.4113 121.141 21.4151 121.141 19.6392C121.141 18.0282 122.254 16.942 123.709 16.942C125.164 16.942 126.275 18.0303 126.275 19.6392C126.275 21.4151 125.162 22.4113 123.709 22.4113Z" fill="#004DFF"/>
</g>
<defs>
<clipPath id="clip0_355_816">
<rect width="128" height="24" fill="white" transform="translate(0.0839691 0.5)"/>
</clipPath>
</defs>
</svg>
